<svg xmlns="http://www.w3.org/2000/svg" viewBox="0 0 700 700" shape-rendering="crispEdges">
  <rect width="700" height="700" fill="#07121f" />
  <rect x="65" y="75" width="570" height="365" fill="#111" />
  <rect x="65" y="75" width="570" height="36" fill="#2e3540" />
  <rect x="92" y="86" width="14" height="14" fill="#f25f5c" />
  <rect x="120" y="86" width="14" height="14" fill="#ffe066" />
  <rect x="148" y="86" width="14" height="14" fill="#70c1b3" />
  <rect x="95" y="145" width="150" height="12" fill="#50fa7b" />
  <rect x="95" y="182" width="330" height="12" fill="#50fa7b" />
  <rect x="95" y="219" width="255" height="12" fill="#50fa7b" />
  <rect x="95" y="256" width="390" height="12" fill="#ff79c6" />
  <rect x="95" y="293" width="210" height="12" fill="#8be9fd" />
  <rect x="470" y="145" width="80" height="80" fill="#263445" />
  <rect x="495" y="160" width="30" height="10" fill="#fff" />
  <rect x="510" y="170" width="10" height="35" fill="#fff" />
  <rect x="495" y="215" width="30" height="10" fill="#fff" />
  <rect x="425" y="320" width="150" height="70" fill="#263445" />
  <rect x="450" y="342" width="80" height="10" fill="#ffb86c" />
  <rect x="450" y="365" width="100" height="10" fill="#ffb86c" />
  <rect x="140" y="470" width="420" height="110" fill="#1b2738" />
  <rect x="170" y="500" width="360" height="18" fill="#4d6b8a" />
  <rect x="170" y="535" width="255" height="18" fill="#4d6b8a" />
  <rect x="290" y="608" width="120" height="24" fill="#50fa7b" />
</svg>
