<svg xmlns="http://www.w3.org/2000/svg" viewBox="0 0 700 700" shape-rendering="crispEdges">
  <rect width="700" height="700" fill="#241b35" />
  <rect x="70" y="90" width="560" height="420" fill="#34264c" />
  <rect x="105" y="125" width="275" height="64" fill="#6c63ff" />
  <rect x="125" y="145" width="195" height="14" fill="#fff" />
  <rect x="125" y="168" width="130" height="14" fill="#fff" />
  <rect x="315" y="189" width="36" height="36" fill="#6c63ff" />
  <rect x="320" y="194" width="26" height="26" fill="#34264c" />
  <rect x="320" y="225" width="72" height="58" fill="#ff6584" />
  <rect x="350" y="245" width="120" height="14" fill="#fff" />
  <rect x="350" y="268" width="90" height="14" fill="#fff" />
  <rect x="470" y="282" width="36" height="36" fill="#ff6584" />
  <rect x="475" y="287" width="26" height="26" fill="#34264c" />
  <rect x="120" y="335" width="350" height="74" fill="#2ec4b6" />
  <rect x="145" y="360" width="260" height="14" fill="#fff" />
  <rect x="145" y="383" width="190" height="14" fill="#fff" />
  <rect x="250" y="470" width="200" height="70" fill="#ffbe0b" />
  <rect x="290" y="490" width="120" height="14" fill="#34264c" />
  <rect x="318" y="560" width="22" height="22" fill="#ff6584" />
  <rect x="340" y="582" width="22" height="22" fill="#ff6584" />
  <rect x="362" y="560" width="22" height="22" fill="#ff6584" />
</svg>
