<svg xmlns="http://www.w3.org/2000/svg" viewBox="0 0 700 700" shape-rendering="crispEdges">
  <rect width="700" height="700" fill="#25005c" />
  <rect y="520" width="700" height="180" fill="#572a8c" />
  <rect y="0" width="700" height="40" fill="#100026" />
  <rect y="205" width="700" height="6" fill="#491078" />
  <rect y="575" width="700" height="10" fill="#2d0f63" />
  <rect y="610" width="570" height="8" fill="#2d0f63" />
  <rect x="80" y="320" width="405" height="205" fill="#eee9dc" />
  <rect x="485" y="370" width="120" height="155" fill="#9d69d0" />
  <rect x="130" y="250" width="300" height="60" fill="#f12713" />
  <rect x="130" y="270" width="330" height="20" fill="#c91516" />
  <rect x="120" y="305" width="360" height="20" fill="#f24719" />
  <rect x="110" y="335" width="250" height="30" fill="#fff" />
  <rect x="115" y="365" width="230" height="120" fill="#9258c3" />
  <rect x="180" y="382" width="85" height="92" fill="#26006a" />
  <rect x="310" y="410" width="160" height="90" fill="#fff" />
  <rect x="520" y="398" width="90" height="70" fill="#2a0759" />
  <rect x="610" y="74" width="24" height="476" fill="#8d2747" />
  <rect x="620" y="74" width="10" height="476" fill="#b43a54" />
  <rect x="82" y="520" width="520" height="18" fill="#f45a1b" />
  <rect x="105" y="495" width="96" height="96" fill="#ff6b16" />
  <rect x="126" y="516" width="54" height="54" fill="#d9eee9" />
  <rect x="141" y="531" width="24" height="24" fill="#6fa5b9" />
  <rect x="345" y="495" width="96" height="96" fill="#ff6b16" />
  <rect x="366" y="516" width="54" height="54" fill="#fff" />
  <rect x="381" y="531" width="24" height="24" fill="#5e329b" />
  <rect x="548" y="520" width="80" height="35" fill="#a22b3e" />
  <rect x="380" y="92" width="80" height="28" fill="#9d69d0" />
  <rect x="60" y="134" width="18" height="18" fill="#fff" />
  <rect x="82" y="156" width="18" height="18" fill="#fff" />
  <rect x="420" y="60" width="18" height="18" fill="#fff" />
  <rect x="445" y="78" width="18" height="18" fill="#fff" />
  <rect x="530" y="138" width="10" height="10" fill="#fff" />
  <rect x="280" y="105" width="10" height="10" fill="#fff" />
</svg>
