<svg xmlns="http://www.w3.org/2000/svg" viewBox="0 0 700 700" shape-rendering="crispEdges">
  <rect width="700" height="700" fill="#d7f9f1" />
  <rect x="60" y="60" width="580" height="580" fill="#0b3954" />
  <rect x="95" y="95" width="510" height="510" fill="#bfd7ea" />
  <rect x="125" y="125" width="120" height="30" fill="#0b3954" />
  <rect x="125" y="155" width="30" height="240" fill="#0b3954" />
  <rect x="185" y="215" width="255" height="30" fill="#0b3954" />
  <rect x="410" y="155" width="30" height="180" fill="#0b3954" />
  <rect x="245" y="335" width="195" height="30" fill="#0b3954" />
  <rect x="245" y="365" width="30" height="120" fill="#0b3954" />
  <rect x="305" y="455" width="230" height="30" fill="#0b3954" />
  <rect x="505" y="275" width="30" height="210" fill="#0b3954" />
  <rect x="155" y="515" width="380" height="30" fill="#0b3954" />
  <rect x="180" y="175" width="110" height="70" fill="#ff6b6b" />
  <rect x="340" y="265" width="95" height="70" fill="#ffe66d" />
  <rect x="180" y="425" width="95" height="70" fill="#4ecdc4" />
  <rect x="455" y="155" width="80" height="80" fill="#f7fff7" />
  <rect x="475" y="175" width="40" height="40" fill="#0b3954" />
</svg>
